<?xml version="1.0" encoding="UTF-8" standalone="no"?>
<svg
   viewBox="0 0 1213 73"
   fill="#FFFFFF"
   version="1.1"
   id="svg1"
   sodipodi:docname="dual-underline.svg"
   inkscape:version="1.3.2 (091e20e, 2023-11-25)"
   xmlns:inkscape="http://www.inkscape.org/namespaces/inkscape"
   xmlns:sodipodi="http://sodipodi.sourceforge.net/DTD/sodipodi-0.dtd"
   xmlns:xlink="http://www.w3.org/1999/xlink"
   xmlns="http://www.w3.org/2000/svg"
   xmlns:svg="http://www.w3.org/2000/svg">
  <defs
     id="defs1">
    <linearGradient
       id="linearGradient1"
       inkscape:collect="always">
      <stop
         style="stop-color:#afdde9;stop-opacity:1"
         offset="0"
         id="stop1" />
      <stop
         style="stop-color:#9955ff;stop-opacity:1"
         offset="1"
         id="stop2" />
    </linearGradient>
    <linearGradient
       inkscape:collect="always"
       xlink:href="#linearGradient1"
       id="linearGradient2"
       x1="1176.2869"
       y1="42.587166"
       x2="63.146488"
       y2="55.803875"
       gradientUnits="userSpaceOnUse" />
  </defs>
  <sodipodi:namedview
     id="namedview1"
     pagecolor="#ffffff"
     bordercolor="#000000"
     borderopacity="0.25"
     inkscape:showpageshadow="2"
     inkscape:pageopacity="0.0"
     inkscape:pagecheckerboard="0"
     inkscape:deskcolor="#d1d1d1"
     inkscape:zoom="0.68095631"
     inkscape:cx="714.43644"
     inkscape:cy="33.776029"
     inkscape:window-width="1728"
     inkscape:window-height="1387"
     inkscape:window-x="493"
     inkscape:window-y="25"
     inkscape:window-maximized="0"
     inkscape:current-layer="svg1" />
  <path
     d="M1212.41 5.51c3.05 12.87-22.36 11.93-30.26 15.68-94.32 20.51-269.09 32.42-365.48 37.51-77.91 3.82-155.66 9.93-233.67 11.67-57.49 2.56-115.05-.19-172.57 1.58-121.28.91-243.17 1.88-363.69-13.33-12.51-2.64-25.8-2.92-37.77-7.45-30.66-21.42 26.02-21.53 38.52-19.26 359.95 29.05 364.68 27.36 638.24 17.85 121-3.78 241.22-19.21 426.76-41.46 4.72-.65 9.18 3.56 8.45 8.36a941.74 941.74 0 0 0 54.29-9.21c9.33-2.33 18.7-4.56 27.95-7.19a7.59 7.59 0 0 1 9.23 5.24Z"
     id="path1"
     style="fill:url(#linearGradient2);fill-opacity:1" />
</svg>
